<?xml version="1.0" standalone="no"?>
<!DOCTYPE svg PUBLIC "-//W3C//DTD SVG 20010904//EN"
 "http://www.w3.org/TR/2001/REC-SVG-20010904/DTD/svg10.dtd">
<svg version="1.0" xmlns="http://www.w3.org/2000/svg"
 width="1024.000000pt" height="1024.000000pt" viewBox="0 0 1024.000000 1024.000000"
 preserveAspectRatio="xMidYMid meet">

<g transform="translate(0.000000,1024.000000) scale(0.100000,-0.100000)"
fill="#000000" stroke="none">
<path d="M1255 7166 c-27 -13 -64 -39 -82 -57 -66 -70 -63 -9 -63 -1203 0
-945 2 -1089 15 -1141 29 -111 108 -204 214 -254 l56 -26 1210 0 1210 0 40 22
c48 26 106 85 131 133 9 19 20 62 23 94 l6 59 74 17 c40 10 114 38 163 62 l89
44 175 -187 c186 -200 209 -216 285 -206 72 9 129 72 129 141 0 52 -37 98
-216 266 l-185 172 26 34 c40 52 93 171 115 258 24 97 27 270 5 364 -61 257
-267 483 -515 566 -370 123 -770 -40 -950 -385 -61 -117 -83 -210 -83 -354 0
-139 16 -220 68 -332 106 -229 315 -399 549 -446 57 -12 61 -15 64 -43 2 -19
-5 -40 -18 -57 l-21 -27 -1157 0 -1157 0 -40 23 c-44 25 -80 72 -95 126 -6 23
-10 414 -10 1088 l0 1052 22 15 c20 14 153 16 1231 16 814 0 1215 -3 1228 -10
18 -10 19 -24 19 -259 0 -201 3 -251 14 -260 9 -7 47 -11 101 -10 l86 2 -3
281 c-3 266 -4 283 -25 321 -27 51 -68 90 -115 109 -33 14 -181 16 -1300 16
l-1263 0 -50 -24z m2827 -1026 c146 -45 287 -166 351 -302 109 -229 63 -493
-118 -673 -226 -226 -569 -231 -802 -11 -126 118 -187 258 -187 426 0 201 97
379 268 491 145 95 323 120 488 69z"/>
<path d="M1599 6700 l-30 -29 3 -420 3 -420 23 -23 23 -23 425 0 426 0 24 28
24 28 0 415 0 416 -29 29 -29 29 -417 0 -417 0 -29 -30z"/>
<path d="M2741 6644 c-41 -34 -44 -92 -6 -129 l24 -25 373 0 c326 0 376 2 396
16 33 23 45 60 32 100 -22 65 -16 64 -421 64 l-367 0 -31 -26z"/>
<path d="M2731 6224 c-33 -41 -28 -96 10 -128 30 -26 31 -26 211 -26 l180 0
29 29 c36 36 39 86 8 125 l-20 26 -199 0 -199 0 -20 -26z"/>
<path d="M1608 5515 c-60 -33 -55 -137 8 -163 22 -9 192 -12 677 -10 l649 3
24 28 c32 37 32 87 0 124 l-24 28 -654 2 c-557 2 -657 0 -680 -12z"/>
<path d="M1593 5086 c-37 -32 -39 -93 -4 -130 l24 -26 728 0 728 0 28 24 c39
34 39 98 0 132 l-28 24 -724 0 -724 0 -28 -24z"/>
<path d="M7035 4326 c-141 -61 -94 -261 61 -258 53 0 100 25 124 65 69 113
-60 247 -185 193z"/>
<path d="M8412 4318 c-9 -9 -12 -167 -12 -650 0 -620 1 -638 19 -648 28 -14
204 -13 219 2 8 8 12 57 12 153 l0 141 38 37 c21 20 41 37 44 37 4 0 62 -81
129 -180 67 -99 130 -185 140 -190 22 -12 229 -13 248 -1 8 5 12 17 9 27 -3
11 -85 131 -182 268 l-176 250 23 25 c13 14 92 99 175 189 100 107 149 167
146 177 -5 12 -29 15 -129 15 l-123 0 -114 -123 c-62 -67 -139 -151 -170 -186
l-58 -64 0 354 c0 263 -3 358 -12 367 -8 8 -48 12 -113 12 -65 0 -105 -4 -113
-12z"/>
<path d="M1121 4256 c-8 -10 -11 -176 -9 -620 3 -526 5 -608 18 -616 8 -5 59
-10 112 -10 75 0 100 4 112 16 14 14 16 61 14 405 -2 214 -1 389 2 388 3 0
131 -178 285 -394 219 -309 286 -397 309 -405 41 -14 189 -13 204 2 17 17 17
1219 0 1236 -18 18 -222 16 -237 -1 -7 -10 -12 -137 -13 -406 l-3 -393 -55 79
c-180 259 -504 710 -518 721 -23 18 -206 17 -221 -2z"/>
<path d="M5845 4259 c-13 -19 -6 -1221 6 -1236 15 -17 209 -19 227 -1 9 9 12
69 12 209 l0 197 198 4 c217 4 263 15 351 78 147 107 201 352 116 537 -48 107
-159 190 -284 213 -75 14 -618 13 -626 -1z m567 -219 c139 -39 184 -227 79
-331 -53 -53 -116 -69 -273 -69 l-128 0 0 205 0 205 143 0 c78 0 159 -5 179
-10z"/>
<path d="M2687 3980 c-212 -54 -347 -241 -347 -483 0 -159 49 -285 146 -377
174 -165 476 -169 649 -9 52 48 105 132 105 167 0 21 -3 22 -106 22 l-106 0
-49 -44 c-56 -51 -118 -71 -189 -63 -71 9 -126 41 -159 92 -30 47 -58 131 -48
142 4 3 154 8 334 10 181 2 334 6 341 8 34 11 -2 230 -54 326 -38 68 -121 144
-201 181 -60 28 -78 32 -172 34 -58 2 -123 -1 -144 -6z m188 -184 c63 -20 112
-68 130 -130 8 -27 15 -53 15 -58 0 -4 -97 -8 -216 -8 l-216 0 6 31 c16 81 69
143 143 166 52 16 82 15 138 -1z"/>
<path d="M5078 3971 c-74 -24 -119 -53 -166 -106 -44 -50 -62 -100 -62 -171 0
-161 96 -241 344 -289 147 -28 167 -36 195 -71 50 -64 5 -137 -93 -149 -103
-13 -179 15 -218 80 l-20 36 -112 -3 c-108 -3 -111 -4 -114 -26 -5 -35 43
-125 88 -166 101 -91 267 -131 427 -102 203 36 298 130 298 296 0 163 -86 234
-343 285 -159 32 -188 41 -207 68 -22 32 -19 82 8 111 44 50 164 59 232 17 28
-17 45 -41 59 -84 5 -17 16 -18 116 -15 127 4 135 8 115 73 -31 103 -126 190
-240 220 -82 21 -234 19 -307 -4z"/>
<path d="M7698 3971 c-161 -52 -285 -195 -319 -369 -22 -116 0 -275 55 -379 8
-17 38 -56 67 -87 104 -113 275 -166 438 -134 101 20 156 46 221 105 55 50
124 174 118 214 -3 23 -7 24 -98 27 -52 2 -104 1 -115 -2 -12 -3 -35 -25 -52
-49 -45 -64 -106 -91 -190 -84 -119 9 -185 80 -202 217 -11 84 1 174 29 230
36 71 114 120 191 120 69 0 153 -51 185 -113 l15 -28 117 3 c135 3 135 3 102
91 -38 101 -143 198 -258 236 -80 27 -222 28 -304 2z"/>
<path d="M3310 3954 c0 -37 282 -920 297 -931 20 -16 205 -18 233 -3 21 11 54
106 135 390 31 107 57 196 60 198 2 2 20 -50 40 -115 93 -304 147 -453 168
-468 27 -19 181 -20 217 -2 26 13 17 -14 244 717 46 147 61 209 54 217 -15 18
-232 18 -245 1 -5 -7 -45 -143 -87 -303 -43 -159 -80 -297 -83 -305 -3 -9 -11
6 -20 35 -53 184 -167 553 -175 568 -8 16 -22 17 -116 15 l-106 -3 -93 -309
c-50 -169 -94 -310 -96 -312 -4 -4 -34 104 -118 423 -26 100 -50 187 -54 193
-4 6 -55 10 -131 10 -108 0 -124 -2 -124 -16z"/>
<path d="M6977 3963 c-4 -3 -7 -214 -7 -468 0 -345 3 -464 12 -473 8 -8 48
-12 113 -12 65 0 105 4 113 12 9 9 12 126 12 464 0 249 -3 459 -6 468 -5 13
-25 16 -118 16 -62 0 -116 -3 -119 -7z"/>
</g>
</svg>
